<?xml version="1.0" encoding="utf-8" standalone="no"?>
<!DOCTYPE svg PUBLIC "-//W3C//DTD SVG 1.1//EN"
  "http://www.w3.org/Graphics/SVG/1.1/DTD/svg11.dtd">
<svg xmlns:xlink="http://www.w3.org/1999/xlink" width="460.8pt" height="345.6pt" viewBox="0 0 460.8 345.6" xmlns="http://www.w3.org/2000/svg" version="1.1">
 <metadata>
  <rdf:RDF xmlns:dc="http://purl.org/dc/elements/1.1/" xmlns:cc="http://creativecommons.org/ns#" xmlns:rdf="http://www.w3.org/1999/02/22-rdf-syntax-ns#">
   <cc:Work>
    <dc:type rdf:resource="http://purl.org/dc/dcmitype/StillImage"/>
    <dc:date>2025-01-17T11:04:46.721039</dc:date>
    <dc:format>image/svg+xml</dc:format>
    <dc:creator>
     <cc:Agent>
      <dc:title>Matplotlib v3.9.3, https://matplotlib.org/</dc:title>
     </cc:Agent>
    </dc:creator>
   </cc:Work>
  </rdf:RDF>
 </metadata>
 <defs>
  <style type="text/css">*{stroke-linejoin: round; stroke-linecap: butt}</style>
 </defs>
 <g id="figure_1">
  <g id="patch_1">
   <path d="M 0 345.6 
L 460.8 345.6 
L 460.8 0 
L 0 0 
z
" style="fill: #ffffff"/>
  </g>
  <g id="axes_1">
   <g id="patch_2">
    <path d="M 57.6 307.584 
L 414.72 307.584 
L 414.72 41.472 
L 57.6 41.472 
z
" style="fill: #ffffff"/>
   </g>
   <g id="matplotlib.axis_1">
    <g id="xtick_1">
     <g id="line2d_1">
      <path d="M 95.442265 307.584 
L 95.442265 41.472 
" clip-path="url(#pa52d51ace5)" style="fill: none; stroke-dasharray: 1.85,0.8; stroke-dashoffset: 0; stroke: #b0b0b0; stroke-width: 0.5"/>
     </g>
     <g id="line2d_2">
      <defs>
       <path id="m5f04d4f54f" d="M 0 0 
L 0 3.5 
" style="stroke: #000000; stroke-width: 0.8"/>
      </defs>
      <g>
       <use xlink:href="#m5f04d4f54f" x="95.442265" y="307.584" style="stroke: #000000; stroke-width: 0.8"/>
      </g>
     </g>
     <g id="text_1">
      <!-- $\mathdefault{10^{-10}}$ -->
      <g transform="translate(81.492265 322.182437) scale(0.1 -0.1)">
       <defs>
        <path id="DejaVuSans-31" d="M 794 531 
L 1825 531 
L 1825 4091 
L 703 3866 
L 703 4441 
L 1819 4666 
L 2450 4666 
L 2450 531 
L 3481 531 
L 3481 0 
L 794 0 
L 794 531 
z
" transform="scale(0.015625)"/>
        <path id="DejaVuSans-30" d="M 2034 4250 
Q 1547 4250 1301 3770 
Q 1056 3291 1056 2328 
Q 1056 1369 1301 889 
Q 1547 409 2034 409 
Q 2525 409 2770 889 
Q 3016 1369 3016 2328 
Q 3016 3291 2770 3770 
Q 2525 4250 2034 4250 
z
M 2034 4750 
Q 2819 4750 3233 4129 
Q 3647 3509 3647 2328 
Q 3647 1150 3233 529 
Q 2819 -91 2034 -91 
Q 1250 -91 836 529 
Q 422 1150 422 2328 
Q 422 3509 836 4129 
Q 1250 4750 2034 4750 
z
" transform="scale(0.015625)"/>
        <path id="DejaVuSans-2212" d="M 678 2272 
L 4684 2272 
L 4684 1741 
L 678 1741 
L 678 2272 
z
" transform="scale(0.015625)"/>
       </defs>
       <use xlink:href="#DejaVuSans-31" transform="translate(0 0.765625)"/>
       <use xlink:href="#DejaVuSans-30" transform="translate(63.623047 0.765625)"/>
       <use xlink:href="#DejaVuSans-2212" transform="translate(128.203125 39.046875) scale(0.7)"/>
       <use xlink:href="#DejaVuSans-31" transform="translate(186.855469 39.046875) scale(0.7)"/>
       <use xlink:href="#DejaVuSans-30" transform="translate(231.391602 39.046875) scale(0.7)"/>
      </g>
     </g>
    </g>
    <g id="xtick_2">
     <g id="line2d_3">
      <path d="M 135.971902 307.584 
L 135.971902 41.472 
" clip-path="url(#pa52d51ace5)" style="fill: none; stroke-dasharray: 1.85,0.8; stroke-dashoffset: 0; stroke: #b0b0b0; stroke-width: 0.5"/>
     </g>
     <g id="line2d_4">
      <g>
       <use xlink:href="#m5f04d4f54f" x="135.971902" y="307.584" style="stroke: #000000; stroke-width: 0.8"/>
      </g>
     </g>
     <g id="text_2">
      <!-- $\mathdefault{10^{-9}}$ -->
      <g transform="translate(124.221902 322.182437) scale(0.1 -0.1)">
       <defs>
        <path id="DejaVuSans-39" d="M 703 97 
L 703 672 
Q 941 559 1184 500 
Q 1428 441 1663 441 
Q 2288 441 2617 861 
Q 2947 1281 2994 2138 
Q 2813 1869 2534 1725 
Q 2256 1581 1919 1581 
Q 1219 1581 811 2004 
Q 403 2428 403 3163 
Q 403 3881 828 4315 
Q 1253 4750 1959 4750 
Q 2769 4750 3195 4129 
Q 3622 3509 3622 2328 
Q 3622 1225 3098 567 
Q 2575 -91 1691 -91 
Q 1453 -91 1209 -44 
Q 966 3 703 97 
z
M 1959 2075 
Q 2384 2075 2632 2365 
Q 2881 2656 2881 3163 
Q 2881 3666 2632 3958 
Q 2384 4250 1959 4250 
Q 1534 4250 1286 3958 
Q 1038 3666 1038 3163 
Q 1038 2656 1286 2365 
Q 1534 2075 1959 2075 
z
" transform="scale(0.015625)"/>
       </defs>
       <use xlink:href="#DejaVuSans-31" transform="translate(0 0.765625)"/>
       <use xlink:href="#DejaVuSans-30" transform="translate(63.623047 0.765625)"/>
       <use xlink:href="#DejaVuSans-2212" transform="translate(128.203125 39.046875) scale(0.7)"/>
       <use xlink:href="#DejaVuSans-39" transform="translate(186.855469 39.046875) scale(0.7)"/>
      </g>
     </g>
    </g>
    <g id="xtick_3">
     <g id="line2d_5">
      <path d="M 176.501538 307.584 
L 176.501538 41.472 
" clip-path="url(#pa52d51ace5)" style="fill: none; stroke-dasharray: 1.85,0.8; stroke-dashoffset: 0; stroke: #b0b0b0; stroke-width: 0.5"/>
     </g>
     <g id="line2d_6">
      <g>
       <use xlink:href="#m5f04d4f54f" x="176.501538" y="307.584" style="stroke: #000000; stroke-width: 0.8"/>
      </g>
     </g>
     <g id="text_3">
      <!-- $\mathdefault{10^{-8}}$ -->
      <g transform="translate(164.751538 322.182437) scale(0.1 -0.1)">
       <defs>
        <path id="DejaVuSans-38" d="M 2034 2216 
Q 1584 2216 1326 1975 
Q 1069 1734 1069 1313 
Q 1069 891 1326 650 
Q 1584 409 2034 409 
Q 2484 409 2743 651 
Q 3003 894 3003 1313 
Q 3003 1734 2745 1975 
Q 2488 2216 2034 2216 
z
M 1403 2484 
Q 997 2584 770 2862 
Q 544 3141 544 3541 
Q 544 4100 942 4425 
Q 1341 4750 2034 4750 
Q 2731 4750 3128 4425 
Q 3525 4100 3525 3541 
Q 3525 3141 3298 2862 
Q 3072 2584 2669 2484 
Q 3125 2378 3379 2068 
Q 3634 1759 3634 1313 
Q 3634 634 3220 271 
Q 2806 -91 2034 -91 
Q 1263 -91 848 271 
Q 434 634 434 1313 
Q 434 1759 690 2068 
Q 947 2378 1403 2484 
z
M 1172 3481 
Q 1172 3119 1398 2916 
Q 1625 2713 2034 2713 
Q 2441 2713 2670 2916 
Q 2900 3119 2900 3481 
Q 2900 3844 2670 4047 
Q 2441 4250 2034 4250 
Q 1625 4250 1398 4047 
Q 1172 3844 1172 3481 
z
" transform="scale(0.015625)"/>
       </defs>
       <use xlink:href="#DejaVuSans-31" transform="translate(0 0.765625)"/>
       <use xlink:href="#DejaVuSans-30" transform="translate(63.623047 0.765625)"/>
       <use xlink:href="#DejaVuSans-2212" transform="translate(128.203125 39.046875) scale(0.7)"/>
       <use xlink:href="#DejaVuSans-38" transform="translate(186.855469 39.046875) scale(0.7)"/>
      </g>
     </g>
    </g>
    <g id="xtick_4">
     <g id="line2d_7">
      <path d="M 217.031175 307.584 
L 217.031175 41.472 
" clip-path="url(#pa52d51ace5)" style="fill: none; stroke-dasharray: 1.85,0.8; stroke-dashoffset: 0; stroke: #b0b0b0; stroke-width: 0.5"/>
     </g>
     <g id="line2d_8">
      <g>
       <use xlink:href="#m5f04d4f54f" x="217.031175" y="307.584" style="stroke: #000000; stroke-width: 0.8"/>
      </g>
     </g>
     <g id="text_4">
      <!-- $\mathdefault{10^{-7}}$ -->
      <g transform="translate(205.281175 322.182437) scale(0.1 -0.1)">
       <defs>
        <path id="DejaVuSans-37" d="M 525 4666 
L 3525 4666 
L 3525 4397 
L 1831 0 
L 1172 0 
L 2766 4134 
L 525 4134 
L 525 4666 
z
" transform="scale(0.015625)"/>
       </defs>
       <use xlink:href="#DejaVuSans-31" transform="translate(0 0.684375)"/>
       <use xlink:href="#DejaVuSans-30" transform="translate(63.623047 0.684375)"/>
       <use xlink:href="#DejaVuSans-2212" transform="translate(128.203125 38.965625) scale(0.7)"/>
       <use xlink:href="#DejaVuSans-37" transform="translate(186.855469 38.965625) scale(0.7)"/>
      </g>
     </g>
    </g>
    <g id="xtick_5">
     <g id="line2d_9">
      <path d="M 257.560812 307.584 
L 257.560812 41.472 
" clip-path="url(#pa52d51ace5)" style="fill: none; stroke-dasharray: 1.85,0.8; stroke-dashoffset: 0; stroke: #b0b0b0; stroke-width: 0.5"/>
     </g>
     <g id="line2d_10">
      <g>
       <use xlink:href="#m5f04d4f54f" x="257.560812" y="307.584" style="stroke: #000000; stroke-width: 0.8"/>
      </g>
     </g>
     <g id="text_5">
      <!-- $\mathdefault{10^{-6}}$ -->
      <g transform="translate(245.810812 322.182437) scale(0.1 -0.1)">
       <defs>
        <path id="DejaVuSans-36" d="M 2113 2584 
Q 1688 2584 1439 2293 
Q 1191 2003 1191 1497 
Q 1191 994 1439 701 
Q 1688 409 2113 409 
Q 2538 409 2786 701 
Q 3034 994 3034 1497 
Q 3034 2003 2786 2293 
Q 2538 2584 2113 2584 
z
M 3366 4563 
L 3366 3988 
Q 3128 4100 2886 4159 
Q 2644 4219 2406 4219 
Q 1781 4219 1451 3797 
Q 1122 3375 1075 2522 
Q 1259 2794 1537 2939 
Q 1816 3084 2150 3084 
Q 2853 3084 3261 2657 
Q 3669 2231 3669 1497 
Q 3669 778 3244 343 
Q 2819 -91 2113 -91 
Q 1303 -91 875 529 
Q 447 1150 447 2328 
Q 447 3434 972 4092 
Q 1497 4750 2381 4750 
Q 2619 4750 2861 4703 
Q 3103 4656 3366 4563 
z
" transform="scale(0.015625)"/>
       </defs>
       <use xlink:href="#DejaVuSans-31" transform="translate(0 0.765625)"/>
       <use xlink:href="#DejaVuSans-30" transform="translate(63.623047 0.765625)"/>
       <use xlink:href="#DejaVuSans-2212" transform="translate(128.203125 39.046875) scale(0.7)"/>
       <use xlink:href="#DejaVuSans-36" transform="translate(186.855469 39.046875) scale(0.7)"/>
      </g>
     </g>
    </g>
    <g id="xtick_6">
     <g id="line2d_11">
      <path d="M 298.090448 307.584 
L 298.090448 41.472 
" clip-path="url(#pa52d51ace5)" style="fill: none; stroke-dasharray: 1.85,0.8; stroke-dashoffset: 0; stroke: #b0b0b0; stroke-width: 0.5"/>
     </g>
     <g id="line2d_12">
      <g>
       <use xlink:href="#m5f04d4f54f" x="298.090448" y="307.584" style="stroke: #000000; stroke-width: 0.8"/>
      </g>
     </g>
     <g id="text_6">
      <!-- $\mathdefault{10^{-5}}$ -->
      <g transform="translate(286.340448 322.182437) scale(0.1 -0.1)">
       <defs>
        <path id="DejaVuSans-35" d="M 691 4666 
L 3169 4666 
L 3169 4134 
L 1269 4134 
L 1269 2991 
Q 1406 3038 1543 3061 
Q 1681 3084 1819 3084 
Q 2600 3084 3056 2656 
Q 3513 2228 3513 1497 
Q 3513 744 3044 326 
Q 2575 -91 1722 -91 
Q 1428 -91 1123 -41 
Q 819 9 494 109 
L 494 744 
Q 775 591 1075 516 
Q 1375 441 1709 441 
Q 2250 441 2565 725 
Q 2881 1009 2881 1497 
Q 2881 1984 2565 2268 
Q 2250 2553 1709 2553 
Q 1456 2553 1204 2497 
Q 953 2441 691 2322 
L 691 4666 
z
" transform="scale(0.015625)"/>
       </defs>
       <use xlink:href="#DejaVuSans-31" transform="translate(0 0.684375)"/>
       <use xlink:href="#DejaVuSans-30" transform="translate(63.623047 0.684375)"/>
       <use xlink:href="#DejaVuSans-2212" transform="translate(128.203125 38.965625) scale(0.7)"/>
       <use xlink:href="#DejaVuSans-35" transform="translate(186.855469 38.965625) scale(0.7)"/>
      </g>
     </g>
    </g>
    <g id="xtick_7">
     <g id="line2d_13">
      <path d="M 338.620085 307.584 
L 338.620085 41.472 
" clip-path="url(#pa52d51ace5)" style="fill: none; stroke-dasharray: 1.85,0.8; stroke-dashoffset: 0; stroke: #b0b0b0; stroke-width: 0.5"/>
     </g>
     <g id="line2d_14">
      <g>
       <use xlink:href="#m5f04d4f54f" x="338.620085" y="307.584" style="stroke: #000000; stroke-width: 0.8"/>
      </g>
     </g>
     <g id="text_7">
      <!-- $\mathdefault{10^{-4}}$ -->
      <g transform="translate(326.870085 322.182437) scale(0.1 -0.1)">
       <defs>
        <path id="DejaVuSans-34" d="M 2419 4116 
L 825 1625 
L 2419 1625 
L 2419 4116 
z
M 2253 4666 
L 3047 4666 
L 3047 1625 
L 3713 1625 
L 3713 1100 
L 3047 1100 
L 3047 0 
L 2419 0 
L 2419 1100 
L 313 1100 
L 313 1709 
L 2253 4666 
z
" transform="scale(0.015625)"/>
       </defs>
       <use xlink:href="#DejaVuSans-31" transform="translate(0 0.684375)"/>
       <use xlink:href="#DejaVuSans-30" transform="translate(63.623047 0.684375)"/>
       <use xlink:href="#DejaVuSans-2212" transform="translate(128.203125 38.965625) scale(0.7)"/>
       <use xlink:href="#DejaVuSans-34" transform="translate(186.855469 38.965625) scale(0.7)"/>
      </g>
     </g>
    </g>
    <g id="xtick_8">
     <g id="line2d_15">
      <path d="M 379.149722 307.584 
L 379.149722 41.472 
" clip-path="url(#pa52d51ace5)" style="fill: none; stroke-dasharray: 1.85,0.8; stroke-dashoffset: 0; stroke: #b0b0b0; stroke-width: 0.5"/>
     </g>
     <g id="line2d_16">
      <g>
       <use xlink:href="#m5f04d4f54f" x="379.149722" y="307.584" style="stroke: #000000; stroke-width: 0.8"/>
      </g>
     </g>
     <g id="text_8">
      <!-- $\mathdefault{10^{-3}}$ -->
      <g transform="translate(367.399722 322.182437) scale(0.1 -0.1)">
       <defs>
        <path id="DejaVuSans-33" d="M 2597 2516 
Q 3050 2419 3304 2112 
Q 3559 1806 3559 1356 
Q 3559 666 3084 287 
Q 2609 -91 1734 -91 
Q 1441 -91 1130 -33 
Q 819 25 488 141 
L 488 750 
Q 750 597 1062 519 
Q 1375 441 1716 441 
Q 2309 441 2620 675 
Q 2931 909 2931 1356 
Q 2931 1769 2642 2001 
Q 2353 2234 1838 2234 
L 1294 2234 
L 1294 2753 
L 1863 2753 
Q 2328 2753 2575 2939 
Q 2822 3125 2822 3475 
Q 2822 3834 2567 4026 
Q 2313 4219 1838 4219 
Q 1578 4219 1281 4162 
Q 984 4106 628 3988 
L 628 4550 
Q 988 4650 1302 4700 
Q 1616 4750 1894 4750 
Q 2613 4750 3031 4423 
Q 3450 4097 3450 3541 
Q 3450 3153 3228 2886 
Q 3006 2619 2597 2516 
z
" transform="scale(0.015625)"/>
       </defs>
       <use xlink:href="#DejaVuSans-31" transform="translate(0 0.765625)"/>
       <use xlink:href="#DejaVuSans-30" transform="translate(63.623047 0.765625)"/>
       <use xlink:href="#DejaVuSans-2212" transform="translate(128.203125 39.046875) scale(0.7)"/>
       <use xlink:href="#DejaVuSans-33" transform="translate(186.855469 39.046875) scale(0.7)"/>
      </g>
     </g>
    </g>
    <g id="xtick_9">
     <g id="line2d_17">
      <path d="M 67.113265 307.584 
L 67.113265 41.472 
" clip-path="url(#pa52d51ace5)" style="fill: none; stroke-dasharray: 1.85,0.8; stroke-dashoffset: 0; stroke: #b0b0b0; stroke-width: 0.5"/>
     </g>
     <g id="line2d_18">
      <defs>
       <path id="mbca86a14da" d="M 0 0 
L 0 2 
" style="stroke: #000000; stroke-width: 0.6"/>
      </defs>
      <g>
       <use xlink:href="#mbca86a14da" x="67.113265" y="307.584" style="stroke: #000000; stroke-width: 0.6"/>
      </g>
     </g>
    </g>
    <g id="xtick_10">
     <g id="line2d_19">
      <path d="M 74.250179 307.584 
L 74.250179 41.472 
" clip-path="url(#pa52d51ace5)" style="fill: none; stroke-dasharray: 1.85,0.8; stroke-dashoffset: 0; stroke: #b0b0b0; stroke-width: 0.5"/>
     </g>
     <g id="line2d_20">
      <g>
       <use xlink:href="#mbca86a14da" x="74.250179" y="307.584" style="stroke: #000000; stroke-width: 0.6"/>
      </g>
     </g>
    </g>
    <g id="xtick_11">
     <g id="line2d_21">
      <path d="M 79.313901 307.584 
L 79.313901 41.472 
" clip-path="url(#pa52d51ace5)" style="fill: none; stroke-dasharray: 1.85,0.8; stroke-dashoffset: 0; stroke: #b0b0b0; stroke-width: 0.5"/>
     </g>
     <g id="line2d_22">
      <g>
       <use xlink:href="#mbca86a14da" x="79.313901" y="307.584" style="stroke: #000000; stroke-width: 0.6"/>
      </g>
     </g>
    </g>
    <g id="xtick_12">
     <g id="line2d_23">
      <path d="M 83.241629 307.584 
L 83.241629 41.472 
" clip-path="url(#pa52d51ace5)" style="fill: none; stroke-dasharray: 1.85,0.8; stroke-dashoffset: 0; stroke: #b0b0b0; stroke-width: 0.5"/>
     </g>
     <g id="line2d_24">
      <g>
       <use xlink:href="#mbca86a14da" x="83.241629" y="307.584" style="stroke: #000000; stroke-width: 0.6"/>
      </g>
     </g>
    </g>
    <g id="xtick_13">
     <g id="line2d_25">
      <path d="M 86.450816 307.584 
L 86.450816 41.472 
" clip-path="url(#pa52d51ace5)" style="fill: none; stroke-dasharray: 1.85,0.8; stroke-dashoffset: 0; stroke: #b0b0b0; stroke-width: 0.5"/>
     </g>
     <g id="line2d_26">
      <g>
       <use xlink:href="#mbca86a14da" x="86.450816" y="307.584" style="stroke: #000000; stroke-width: 0.6"/>
      </g>
     </g>
    </g>
    <g id="xtick_14">
     <g id="line2d_27">
      <path d="M 89.164145 307.584 
L 89.164145 41.472 
" clip-path="url(#pa52d51ace5)" style="fill: none; stroke-dasharray: 1.85,0.8; stroke-dashoffset: 0; stroke: #b0b0b0; stroke-width: 0.5"/>
     </g>
     <g id="line2d_28">
      <g>
       <use xlink:href="#mbca86a14da" x="89.164145" y="307.584" style="stroke: #000000; stroke-width: 0.6"/>
      </g>
     </g>
    </g>
    <g id="xtick_15">
     <g id="line2d_29">
      <path d="M 91.514537 307.584 
L 91.514537 41.472 
" clip-path="url(#pa52d51ace5)" style="fill: none; stroke-dasharray: 1.85,0.8; stroke-dashoffset: 0; stroke: #b0b0b0; stroke-width: 0.5"/>
     </g>
     <g id="line2d_30">
      <g>
       <use xlink:href="#mbca86a14da" x="91.514537" y="307.584" style="stroke: #000000; stroke-width: 0.6"/>
      </g>
     </g>
    </g>
    <g id="xtick_16">
     <g id="line2d_31">
      <path d="M 93.58773 307.584 
L 93.58773 41.472 
" clip-path="url(#pa52d51ace5)" style="fill: none; stroke-dasharray: 1.85,0.8; stroke-dashoffset: 0; stroke: #b0b0b0; stroke-width: 0.5"/>
     </g>
     <g id="line2d_32">
      <g>
       <use xlink:href="#mbca86a14da" x="93.58773" y="307.584" style="stroke: #000000; stroke-width: 0.6"/>
      </g>
     </g>
    </g>
    <g id="xtick_17">
     <g id="line2d_33">
      <path d="M 107.642901 307.584 
L 107.642901 41.472 
" clip-path="url(#pa52d51ace5)" style="fill: none; stroke-dasharray: 1.85,0.8; stroke-dashoffset: 0; stroke: #b0b0b0; stroke-width: 0.5"/>
     </g>
     <g id="line2d_34">
      <g>
       <use xlink:href="#mbca86a14da" x="107.642901" y="307.584" style="stroke: #000000; stroke-width: 0.6"/>
      </g>
     </g>
    </g>
    <g id="xtick_18">
     <g id="line2d_35">
      <path d="M 114.779816 307.584 
L 114.779816 41.472 
" clip-path="url(#pa52d51ace5)" style="fill: none; stroke-dasharray: 1.85,0.8; stroke-dashoffset: 0; stroke: #b0b0b0; stroke-width: 0.5"/>
     </g>
     <g id="line2d_36">
      <g>
       <use xlink:href="#mbca86a14da" x="114.779816" y="307.584" style="stroke: #000000; stroke-width: 0.6"/>
      </g>
     </g>
    </g>
    <g id="xtick_19">
     <g id="line2d_37">
      <path d="M 119.843538 307.584 
L 119.843538 41.472 
" clip-path="url(#pa52d51ace5)" style="fill: none; stroke-dasharray: 1.85,0.8; stroke-dashoffset: 0; stroke: #b0b0b0; stroke-width: 0.5"/>
     </g>
     <g id="line2d_38">
      <g>
       <use xlink:href="#mbca86a14da" x="119.843538" y="307.584" style="stroke: #000000; stroke-width: 0.6"/>
      </g>
     </g>
    </g>
    <g id="xtick_20">
     <g id="line2d_39">
      <path d="M 123.771265 307.584 
L 123.771265 41.472 
" clip-path="url(#pa52d51ace5)" style="fill: none; stroke-dasharray: 1.85,0.8; stroke-dashoffset: 0; stroke: #b0b0b0; stroke-width: 0.5"/>
     </g>
     <g id="line2d_40">
      <g>
       <use xlink:href="#mbca86a14da" x="123.771265" y="307.584" style="stroke: #000000; stroke-width: 0.6"/>
      </g>
     </g>
    </g>
    <g id="xtick_21">
     <g id="line2d_41">
      <path d="M 126.980452 307.584 
L 126.980452 41.472 
" clip-path="url(#pa52d51ace5)" style="fill: none; stroke-dasharray: 1.85,0.8; stroke-dashoffset: 0; stroke: #b0b0b0; stroke-width: 0.5"/>
     </g>
     <g id="line2d_42">
      <g>
       <use xlink:href="#mbca86a14da" x="126.980452" y="307.584" style="stroke: #000000; stroke-width: 0.6"/>
      </g>
     </g>
    </g>
    <g id="xtick_22">
     <g id="line2d_43">
      <path d="M 129.693781 307.584 
L 129.693781 41.472 
" clip-path="url(#pa52d51ace5)" style="fill: none; stroke-dasharray: 1.85,0.8; stroke-dashoffset: 0; stroke: #b0b0b0; stroke-width: 0.5"/>
     </g>
     <g id="line2d_44">
      <g>
       <use xlink:href="#mbca86a14da" x="129.693781" y="307.584" style="stroke: #000000; stroke-width: 0.6"/>
      </g>
     </g>
    </g>
    <g id="xtick_23">
     <g id="line2d_45">
      <path d="M 132.044174 307.584 
L 132.044174 41.472 
" clip-path="url(#pa52d51ace5)" style="fill: none; stroke-dasharray: 1.85,0.8; stroke-dashoffset: 0; stroke: #b0b0b0; stroke-width: 0.5"/>
     </g>
     <g id="line2d_46">
      <g>
       <use xlink:href="#mbca86a14da" x="132.044174" y="307.584" style="stroke: #000000; stroke-width: 0.6"/>
      </g>
     </g>
    </g>
    <g id="xtick_24">
     <g id="line2d_47">
      <path d="M 134.117367 307.584 
L 134.117367 41.472 
" clip-path="url(#pa52d51ace5)" style="fill: none; stroke-dasharray: 1.85,0.8; stroke-dashoffset: 0; stroke: #b0b0b0; stroke-width: 0.5"/>
     </g>
     <g id="line2d_48">
      <g>
       <use xlink:href="#mbca86a14da" x="134.117367" y="307.584" style="stroke: #000000; stroke-width: 0.6"/>
      </g>
     </g>
    </g>
    <g id="xtick_25">
     <g id="line2d_49">
      <path d="M 148.172538 307.584 
L 148.172538 41.472 
" clip-path="url(#pa52d51ace5)" style="fill: none; stroke-dasharray: 1.85,0.8; stroke-dashoffset: 0; stroke: #b0b0b0; stroke-width: 0.5"/>
     </g>
     <g id="line2d_50">
      <g>
       <use xlink:href="#mbca86a14da" x="148.172538" y="307.584" style="stroke: #000000; stroke-width: 0.6"/>
      </g>
     </g>
    </g>
    <g id="xtick_26">
     <g id="line2d_51">
      <path d="M 155.309453 307.584 
L 155.309453 41.472 
" clip-path="url(#pa52d51ace5)" style="fill: none; stroke-dasharray: 1.85,0.8; stroke-dashoffset: 0; stroke: #b0b0b0; stroke-width: 0.5"/>
     </g>
     <g id="line2d_52">
      <g>
       <use xlink:href="#mbca86a14da" x="155.309453" y="307.584" style="stroke: #000000; stroke-width: 0.6"/>
      </g>
     </g>
    </g>
    <g id="xtick_27">
     <g id="line2d_53">
      <path d="M 160.373174 307.584 
L 160.373174 41.472 
" clip-path="url(#pa52d51ace5)" style="fill: none; stroke-dasharray: 1.85,0.8; stroke-dashoffset: 0; stroke: #b0b0b0; stroke-width: 0.5"/>
     </g>
     <g id="line2d_54">
      <g>
       <use xlink:href="#mbca86a14da" x="160.373174" y="307.584" style="stroke: #000000; stroke-width: 0.6"/>
      </g>
     </g>
    </g>
    <g id="xtick_28">
     <g id="line2d_55">
      <path d="M 164.300902 307.584 
L 164.300902 41.472 
" clip-path="url(#pa52d51ace5)" style="fill: none; stroke-dasharray: 1.85,0.8; stroke-dashoffset: 0; stroke: #b0b0b0; stroke-width: 0.5"/>
     </g>
     <g id="line2d_56">
      <g>
       <use xlink:href="#mbca86a14da" x="164.300902" y="307.584" style="stroke: #000000; stroke-width: 0.6"/>
      </g>
     </g>
    </g>
    <g id="xtick_29">
     <g id="line2d_57">
      <path d="M 167.510089 307.584 
L 167.510089 41.472 
" clip-path="url(#pa52d51ace5)" style="fill: none; stroke-dasharray: 1.85,0.8; stroke-dashoffset: 0; stroke: #b0b0b0; stroke-width: 0.5"/>
     </g>
     <g id="line2d_58">
      <g>
       <use xlink:href="#mbca86a14da" x="167.510089" y="307.584" style="stroke: #000000; stroke-width: 0.6"/>
      </g>
     </g>
    </g>
    <g id="xtick_30">
     <g id="line2d_59">
      <path d="M 170.223418 307.584 
L 170.223418 41.472 
" clip-path="url(#pa52d51ace5)" style="fill: none; stroke-dasharray: 1.85,0.8; stroke-dashoffset: 0; stroke: #b0b0b0; stroke-width: 0.5"/>
     </g>
     <g id="line2d_60">
      <g>
       <use xlink:href="#mbca86a14da" x="170.223418" y="307.584" style="stroke: #000000; stroke-width: 0.6"/>
      </g>
     </g>
    </g>
    <g id="xtick_31">
     <g id="line2d_61">
      <path d="M 172.573811 307.584 
L 172.573811 41.472 
" clip-path="url(#pa52d51ace5)" style="fill: none; stroke-dasharray: 1.85,0.8; stroke-dashoffset: 0; stroke: #b0b0b0; stroke-width: 0.5"/>
     </g>
     <g id="line2d_62">
      <g>
       <use xlink:href="#mbca86a14da" x="172.573811" y="307.584" style="stroke: #000000; stroke-width: 0.6"/>
      </g>
     </g>
    </g>
    <g id="xtick_32">
     <g id="line2d_63">
      <path d="M 174.647004 307.584 
L 174.647004 41.472 
" clip-path="url(#pa52d51ace5)" style="fill: none; stroke-dasharray: 1.85,0.8; stroke-dashoffset: 0; stroke: #b0b0b0; stroke-width: 0.5"/>
     </g>
     <g id="line2d_64">
      <g>
       <use xlink:href="#mbca86a14da" x="174.647004" y="307.584" style="stroke: #000000; stroke-width: 0.6"/>
      </g>
     </g>
    </g>
    <g id="xtick_33">
     <g id="line2d_65">
      <path d="M 188.702175 307.584 
L 188.702175 41.472 
" clip-path="url(#pa52d51ace5)" style="fill: none; stroke-dasharray: 1.85,0.8; stroke-dashoffset: 0; stroke: #b0b0b0; stroke-width: 0.5"/>
     </g>
     <g id="line2d_66">
      <g>
       <use xlink:href="#mbca86a14da" x="188.702175" y="307.584" style="stroke: #000000; stroke-width: 0.6"/>
      </g>
     </g>
    </g>
    <g id="xtick_34">
     <g id="line2d_67">
      <path d="M 195.839089 307.584 
L 195.839089 41.472 
" clip-path="url(#pa52d51ace5)" style="fill: none; stroke-dasharray: 1.85,0.8; stroke-dashoffset: 0; stroke: #b0b0b0; stroke-width: 0.5"/>
     </g>
     <g id="line2d_68">
      <g>
       <use xlink:href="#mbca86a14da" x="195.839089" y="307.584" style="stroke: #000000; stroke-width: 0.6"/>
      </g>
     </g>
    </g>
    <g id="xtick_35">
     <g id="line2d_69">
      <path d="M 200.902811 307.584 
L 200.902811 41.472 
" clip-path="url(#pa52d51ace5)" style="fill: none; stroke-dasharray: 1.85,0.8; stroke-dashoffset: 0; stroke: #b0b0b0; stroke-width: 0.5"/>
     </g>
     <g id="line2d_70">
      <g>
       <use xlink:href="#mbca86a14da" x="200.902811" y="307.584" style="stroke: #000000; stroke-width: 0.6"/>
      </g>
     </g>
    </g>
    <g id="xtick_36">
     <g id="line2d_71">
      <path d="M 204.830539 307.584 
L 204.830539 41.472 
" clip-path="url(#pa52d51ace5)" style="fill: none; stroke-dasharray: 1.85,0.8; stroke-dashoffset: 0; stroke: #b0b0b0; stroke-width: 0.5"/>
     </g>
     <g id="line2d_72">
      <g>
       <use xlink:href="#mbca86a14da" x="204.830539" y="307.584" style="stroke: #000000; stroke-width: 0.6"/>
      </g>
     </g>
    </g>
    <g id="xtick_37">
     <g id="line2d_73">
      <path d="M 208.039726 307.584 
L 208.039726 41.472 
" clip-path="url(#pa52d51ace5)" style="fill: none; stroke-dasharray: 1.85,0.8; stroke-dashoffset: 0; stroke: #b0b0b0; stroke-width: 0.5"/>
     </g>
     <g id="line2d_74">
      <g>
       <use xlink:href="#mbca86a14da" x="208.039726" y="307.584" style="stroke: #000000; stroke-width: 0.6"/>
      </g>
     </g>
    </g>
    <g id="xtick_38">
     <g id="line2d_75">
      <path d="M 210.753055 307.584 
L 210.753055 41.472 
" clip-path="url(#pa52d51ace5)" style="fill: none; stroke-dasharray: 1.85,0.8; stroke-dashoffset: 0; stroke: #b0b0b0; stroke-width: 0.5"/>
     </g>
     <g id="line2d_76">
      <g>
       <use xlink:href="#mbca86a14da" x="210.753055" y="307.584" style="stroke: #000000; stroke-width: 0.6"/>
      </g>
     </g>
    </g>
    <g id="xtick_39">
     <g id="line2d_77">
      <path d="M 213.103447 307.584 
L 213.103447 41.472 
" clip-path="url(#pa52d51ace5)" style="fill: none; stroke-dasharray: 1.85,0.8; stroke-dashoffset: 0; stroke: #b0b0b0; stroke-width: 0.5"/>
     </g>
     <g id="line2d_78">
      <g>
       <use xlink:href="#mbca86a14da" x="213.103447" y="307.584" style="stroke: #000000; stroke-width: 0.6"/>
      </g>
     </g>
    </g>
    <g id="xtick_40">
     <g id="line2d_79">
      <path d="M 215.17664 307.584 
L 215.17664 41.472 
" clip-path="url(#pa52d51ace5)" style="fill: none; stroke-dasharray: 1.85,0.8; stroke-dashoffset: 0; stroke: #b0b0b0; stroke-width: 0.5"/>
     </g>
     <g id="line2d_80">
      <g>
       <use xlink:href="#mbca86a14da" x="215.17664" y="307.584" style="stroke: #000000; stroke-width: 0.6"/>
      </g>
     </g>
    </g>
    <g id="xtick_41">
     <g id="line2d_81">
      <path d="M 229.231811 307.584 
L 229.231811 41.472 
" clip-path="url(#pa52d51ace5)" style="fill: none; stroke-dasharray: 1.85,0.8; stroke-dashoffset: 0; stroke: #b0b0b0; stroke-width: 0.5"/>
     </g>
     <g id="line2d_82">
      <g>
       <use xlink:href="#mbca86a14da" x="229.231811" y="307.584" style="stroke: #000000; stroke-width: 0.6"/>
      </g>
     </g>
    </g>
    <g id="xtick_42">
     <g id="line2d_83">
      <path d="M 236.368726 307.584 
L 236.368726 41.472 
" clip-path="url(#pa52d51ace5)" style="fill: none; stroke-dasharray: 1.85,0.8; stroke-dashoffset: 0; stroke: #b0b0b0; stroke-width: 0.5"/>
     </g>
     <g id="line2d_84">
      <g>
       <use xlink:href="#mbca86a14da" x="236.368726" y="307.584" style="stroke: #000000; stroke-width: 0.6"/>
      </g>
     </g>
    </g>
    <g id="xtick_43">
     <g id="line2d_85">
      <path d="M 241.432448 307.584 
L 241.432448 41.472 
" clip-path="url(#pa52d51ace5)" style="fill: none; stroke-dasharray: 1.85,0.8; stroke-dashoffset: 0; stroke: #b0b0b0; stroke-width: 0.5"/>
     </g>
     <g id="line2d_86">
      <g>
       <use xlink:href="#mbca86a14da" x="241.432448" y="307.584" style="stroke: #000000; stroke-width: 0.6"/>
      </g>
     </g>
    </g>
    <g id="xtick_44">
     <g id="line2d_87">
      <path d="M 245.360175 307.584 
L 245.360175 41.472 
" clip-path="url(#pa52d51ace5)" style="fill: none; stroke-dasharray: 1.85,0.8; stroke-dashoffset: 0; stroke: #b0b0b0; stroke-width: 0.5"/>
     </g>
     <g id="line2d_88">
      <g>
       <use xlink:href="#mbca86a14da" x="245.360175" y="307.584" style="stroke: #000000; stroke-width: 0.6"/>
      </g>
     </g>
    </g>
    <g id="xtick_45">
     <g id="line2d_89">
      <path d="M 248.569362 307.584 
L 248.569362 41.472 
" clip-path="url(#pa52d51ace5)" style="fill: none; stroke-dasharray: 1.85,0.8; stroke-dashoffset: 0; stroke: #b0b0b0; stroke-width: 0.5"/>
     </g>
     <g id="line2d_90">
      <g>
       <use xlink:href="#mbca86a14da" x="248.569362" y="307.584" style="stroke: #000000; stroke-width: 0.6"/>
      </g>
     </g>
    </g>
    <g id="xtick_46">
     <g id="line2d_91">
      <path d="M 251.282691 307.584 
L 251.282691 41.472 
" clip-path="url(#pa52d51ace5)" style="fill: none; stroke-dasharray: 1.85,0.8; stroke-dashoffset: 0; stroke: #b0b0b0; stroke-width: 0.5"/>
     </g>
     <g id="line2d_92">
      <g>
       <use xlink:href="#mbca86a14da" x="251.282691" y="307.584" style="stroke: #000000; stroke-width: 0.6"/>
      </g>
     </g>
    </g>
    <g id="xtick_47">
     <g id="line2d_93">
      <path d="M 253.633084 307.584 
L 253.633084 41.472 
" clip-path="url(#pa52d51ace5)" style="fill: none; stroke-dasharray: 1.85,0.8; stroke-dashoffset: 0; stroke: #b0b0b0; stroke-width: 0.5"/>
     </g>
     <g id="line2d_94">
      <g>
       <use xlink:href="#mbca86a14da" x="253.633084" y="307.584" style="stroke: #000000; stroke-width: 0.6"/>
      </g>
     </g>
    </g>
    <g id="xtick_48">
     <g id="line2d_95">
      <path d="M 255.706277 307.584 
L 255.706277 41.472 
" clip-path="url(#pa52d51ace5)" style="fill: none; stroke-dasharray: 1.85,0.8; stroke-dashoffset: 0; stroke: #b0b0b0; stroke-width: 0.5"/>
     </g>
     <g id="line2d_96">
      <g>
       <use xlink:href="#mbca86a14da" x="255.706277" y="307.584" style="stroke: #000000; stroke-width: 0.6"/>
      </g>
     </g>
    </g>
    <g id="xtick_49">
     <g id="line2d_97">
      <path d="M 269.761448 307.584 
L 269.761448 41.472 
" clip-path="url(#pa52d51ace5)" style="fill: none; stroke-dasharray: 1.85,0.8; stroke-dashoffset: 0; stroke: #b0b0b0; stroke-width: 0.5"/>
     </g>
     <g id="line2d_98">
      <g>
       <use xlink:href="#mbca86a14da" x="269.761448" y="307.584" style="stroke: #000000; stroke-width: 0.6"/>
      </g>
     </g>
    </g>
    <g id="xtick_50">
     <g id="line2d_99">
      <path d="M 276.898363 307.584 
L 276.898363 41.472 
" clip-path="url(#pa52d51ace5)" style="fill: none; stroke-dasharray: 1.85,0.8; stroke-dashoffset: 0; stroke: #b0b0b0; stroke-width: 0.5"/>
     </g>
     <g id="line2d_100">
      <g>
       <use xlink:href="#mbca86a14da" x="276.898363" y="307.584" style="stroke: #000000; stroke-width: 0.6"/>
      </g>
     </g>
    </g>
    <g id="xtick_51">
     <g id="line2d_101">
      <path d="M 281.962084 307.584 
L 281.962084 41.472 
" clip-path="url(#pa52d51ace5)" style="fill: none; stroke-dasharray: 1.85,0.8; stroke-dashoffset: 0; stroke: #b0b0b0; stroke-width: 0.5"/>
     </g>
     <g id="line2d_102">
      <g>
       <use xlink:href="#mbca86a14da" x="281.962084" y="307.584" style="stroke: #000000; stroke-width: 0.6"/>
      </g>
     </g>
    </g>
    <g id="xtick_52">
     <g id="line2d_103">
      <path d="M 285.889812 307.584 
L 285.889812 41.472 
" clip-path="url(#pa52d51ace5)" style="fill: none; stroke-dasharray: 1.85,0.8; stroke-dashoffset: 0; stroke: #b0b0b0; stroke-width: 0.5"/>
     </g>
     <g id="line2d_104">
      <g>
       <use xlink:href="#mbca86a14da" x="285.889812" y="307.584" style="stroke: #000000; stroke-width: 0.6"/>
      </g>
     </g>
    </g>
    <g id="xtick_53">
     <g id="line2d_105">
      <path d="M 289.098999 307.584 
L 289.098999 41.472 
" clip-path="url(#pa52d51ace5)" style="fill: none; stroke-dasharray: 1.85,0.8; stroke-dashoffset: 0; stroke: #b0b0b0; stroke-width: 0.5"/>
     </g>
     <g id="line2d_106">
      <g>
       <use xlink:href="#mbca86a14da" x="289.098999" y="307.584" style="stroke: #000000; stroke-width: 0.6"/>
      </g>
     </g>
    </g>
    <g id="xtick_54">
     <g id="line2d_107">
      <path d="M 291.812328 307.584 
L 291.812328 41.472 
" clip-path="url(#pa52d51ace5)" style="fill: none; stroke-dasharray: 1.85,0.8; stroke-dashoffset: 0; stroke: #b0b0b0; stroke-width: 0.5"/>
     </g>
     <g id="line2d_108">
      <g>
       <use xlink:href="#mbca86a14da" x="291.812328" y="307.584" style="stroke: #000000; stroke-width: 0.6"/>
      </g>
     </g>
    </g>
    <g id="xtick_55">
     <g id="line2d_109">
      <path d="M 294.162721 307.584 
L 294.162721 41.472 
" clip-path="url(#pa52d51ace5)" style="fill: none; stroke-dasharray: 1.85,0.8; stroke-dashoffset: 0; stroke: #b0b0b0; stroke-width: 0.5"/>
     </g>
     <g id="line2d_110">
      <g>
       <use xlink:href="#mbca86a14da" x="294.162721" y="307.584" style="stroke: #000000; stroke-width: 0.6"/>
      </g>
     </g>
    </g>
    <g id="xtick_56">
     <g id="line2d_111">
      <path d="M 296.235914 307.584 
L 296.235914 41.472 
" clip-path="url(#pa52d51ace5)" style="fill: none; stroke-dasharray: 1.85,0.8; stroke-dashoffset: 0; stroke: #b0b0b0; stroke-width: 0.5"/>
     </g>
     <g id="line2d_112">
      <g>
       <use xlink:href="#mbca86a14da" x="296.235914" y="307.584" style="stroke: #000000; stroke-width: 0.6"/>
      </g>
     </g>
    </g>
    <g id="xtick_57">
     <g id="line2d_113">
      <path d="M 310.291085 307.584 
L 310.291085 41.472 
" clip-path="url(#pa52d51ace5)" style="fill: none; stroke-dasharray: 1.85,0.8; stroke-dashoffset: 0; stroke: #b0b0b0; stroke-width: 0.5"/>
     </g>
     <g id="line2d_114">
      <g>
       <use xlink:href="#mbca86a14da" x="310.291085" y="307.584" style="stroke: #000000; stroke-width: 0.6"/>
      </g>
     </g>
    </g>
    <g id="xtick_58">
     <g id="line2d_115">
      <path d="M 317.427999 307.584 
L 317.427999 41.472 
" clip-path="url(#pa52d51ace5)" style="fill: none; stroke-dasharray: 1.85,0.8; stroke-dashoffset: 0; stroke: #b0b0b0; stroke-width: 0.5"/>
     </g>
     <g id="line2d_116">
      <g>
       <use xlink:href="#mbca86a14da" x="317.427999" y="307.584" style="stroke: #000000; stroke-width: 0.6"/>
      </g>
     </g>
    </g>
    <g id="xtick_59">
     <g id="line2d_117">
      <path d="M 322.491721 307.584 
L 322.491721 41.472 
" clip-path="url(#pa52d51ace5)" style="fill: none; stroke-dasharray: 1.85,0.8; stroke-dashoffset: 0; stroke: #b0b0b0; stroke-width: 0.5"/>
     </g>
     <g id="line2d_118">
      <g>
       <use xlink:href="#mbca86a14da" x="322.491721" y="307.584" style="stroke: #000000; stroke-width: 0.6"/>
      </g>
     </g>
    </g>
    <g id="xtick_60">
     <g id="line2d_119">
      <path d="M 326.419449 307.584 
L 326.419449 41.472 
" clip-path="url(#pa52d51ace5)" style="fill: none; stroke-dasharray: 1.85,0.8; stroke-dashoffset: 0; stroke: #b0b0b0; stroke-width: 0.5"/>
     </g>
     <g id="line2d_120">
      <g>
       <use xlink:href="#mbca86a14da" x="326.419449" y="307.584" style="stroke: #000000; stroke-width: 0.6"/>
      </g>
     </g>
    </g>
    <g id="xtick_61">
     <g id="line2d_121">
      <path d="M 329.628636 307.584 
L 329.628636 41.472 
" clip-path="url(#pa52d51ace5)" style="fill: none; stroke-dasharray: 1.85,0.8; stroke-dashoffset: 0; stroke: #b0b0b0; stroke-width: 0.5"/>
     </g>
     <g id="line2d_122">
      <g>
       <use xlink:href="#mbca86a14da" x="329.628636" y="307.584" style="stroke: #000000; stroke-width: 0.6"/>
      </g>
     </g>
    </g>
    <g id="xtick_62">
     <g id="line2d_123">
      <path d="M 332.341965 307.584 
L 332.341965 41.472 
" clip-path="url(#pa52d51ace5)" style="fill: none; stroke-dasharray: 1.85,0.8; stroke-dashoffset: 0; stroke: #b0b0b0; stroke-width: 0.5"/>
     </g>
     <g id="line2d_124">
      <g>
       <use xlink:href="#mbca86a14da" x="332.341965" y="307.584" style="stroke: #000000; stroke-width: 0.6"/>
      </g>
     </g>
    </g>
    <g id="xtick_63">
     <g id="line2d_125">
      <path d="M 334.692357 307.584 
L 334.692357 41.472 
" clip-path="url(#pa52d51ace5)" style="fill: none; stroke-dasharray: 1.85,0.8; stroke-dashoffset: 0; stroke: #b0b0b0; stroke-width: 0.5"/>
     </g>
     <g id="line2d_126">
      <g>
       <use xlink:href="#mbca86a14da" x="334.692357" y="307.584" style="stroke: #000000; stroke-width: 0.6"/>
      </g>
     </g>
    </g>
    <g id="xtick_64">
     <g id="line2d_127">
      <path d="M 336.76555 307.584 
L 336.76555 41.472 
" clip-path="url(#pa52d51ace5)" style="fill: none; stroke-dasharray: 1.85,0.8; stroke-dashoffset: 0; stroke: #b0b0b0; stroke-width: 0.5"/>
     </g>
     <g id="line2d_128">
      <g>
       <use xlink:href="#mbca86a14da" x="336.76555" y="307.584" style="stroke: #000000; stroke-width: 0.6"/>
      </g>
     </g>
    </g>
    <g id="xtick_65">
     <g id="line2d_129">
      <path d="M 350.820721 307.584 
L 350.820721 41.472 
" clip-path="url(#pa52d51ace5)" style="fill: none; stroke-dasharray: 1.85,0.8; stroke-dashoffset: 0; stroke: #b0b0b0; stroke-width: 0.5"/>
     </g>
     <g id="line2d_130">
      <g>
       <use xlink:href="#mbca86a14da" x="350.820721" y="307.584" style="stroke: #000000; stroke-width: 0.6"/>
      </g>
     </g>
    </g>
    <g id="xtick_66">
     <g id="line2d_131">
      <path d="M 357.957636 307.584 
L 357.957636 41.472 
" clip-path="url(#pa52d51ace5)" style="fill: none; stroke-dasharray: 1.85,0.8; stroke-dashoffset: 0; stroke: #b0b0b0; stroke-width: 0.5"/>
     </g>
     <g id="line2d_132">
      <g>
       <use xlink:href="#mbca86a14da" x="357.957636" y="307.584" style="stroke: #000000; stroke-width: 0.6"/>
      </g>
     </g>
    </g>
    <g id="xtick_67">
     <g id="line2d_133">
      <path d="M 363.021358 307.584 
L 363.021358 41.472 
" clip-path="url(#pa52d51ace5)" style="fill: none; stroke-dasharray: 1.85,0.8; stroke-dashoffset: 0; stroke: #b0b0b0; stroke-width: 0.5"/>
     </g>
     <g id="line2d_134">
      <g>
       <use xlink:href="#mbca86a14da" x="363.021358" y="307.584" style="stroke: #000000; stroke-width: 0.6"/>
      </g>
     </g>
    </g>
    <g id="xtick_68">
     <g id="line2d_135">
      <path d="M 366.949085 307.584 
L 366.949085 41.472 
" clip-path="url(#pa52d51ace5)" style="fill: none; stroke-dasharray: 1.85,0.8; stroke-dashoffset: 0; stroke: #b0b0b0; stroke-width: 0.5"/>
     </g>
     <g id="line2d_136">
      <g>
       <use xlink:href="#mbca86a14da" x="366.949085" y="307.584" style="stroke: #000000; stroke-width: 0.6"/>
      </g>
     </g>
    </g>
    <g id="xtick_69">
     <g id="line2d_137">
      <path d="M 370.158272 307.584 
L 370.158272 41.472 
" clip-path="url(#pa52d51ace5)" style="fill: none; stroke-dasharray: 1.85,0.8; stroke-dashoffset: 0; stroke: #b0b0b0; stroke-width: 0.5"/>
     </g>
     <g id="line2d_138">
      <g>
       <use xlink:href="#mbca86a14da" x="370.158272" y="307.584" style="stroke: #000000; stroke-width: 0.6"/>
      </g>
     </g>
    </g>
    <g id="xtick_70">
     <g id="line2d_139">
      <path d="M 372.871601 307.584 
L 372.871601 41.472 
" clip-path="url(#pa52d51ace5)" style="fill: none; stroke-dasharray: 1.85,0.8; stroke-dashoffset: 0; stroke: #b0b0b0; stroke-width: 0.5"/>
     </g>
     <g id="line2d_140">
      <g>
       <use xlink:href="#mbca86a14da" x="372.871601" y="307.584" style="stroke: #000000; stroke-width: 0.6"/>
      </g>
     </g>
    </g>
    <g id="xtick_71">
     <g id="line2d_141">
      <path d="M 375.221994 307.584 
L 375.221994 41.472 
" clip-path="url(#pa52d51ace5)" style="fill: none; stroke-dasharray: 1.85,0.8; stroke-dashoffset: 0; stroke: #b0b0b0; stroke-width: 0.5"/>
     </g>
     <g id="line2d_142">
      <g>
       <use xlink:href="#mbca86a14da" x="375.221994" y="307.584" style="stroke: #000000; stroke-width: 0.6"/>
      </g>
     </g>
    </g>
    <g id="xtick_72">
     <g id="line2d_143">
      <path d="M 377.295187 307.584 
L 377.295187 41.472 
" clip-path="url(#pa52d51ace5)" style="fill: none; stroke-dasharray: 1.85,0.8; stroke-dashoffset: 0; stroke: #b0b0b0; stroke-width: 0.5"/>
     </g>
     <g id="line2d_144">
      <g>
       <use xlink:href="#mbca86a14da" x="377.295187" y="307.584" style="stroke: #000000; stroke-width: 0.6"/>
      </g>
     </g>
    </g>
    <g id="xtick_73">
     <g id="line2d_145">
      <path d="M 391.350358 307.584 
L 391.350358 41.472 
" clip-path="url(#pa52d51ace5)" style="fill: none; stroke-dasharray: 1.85,0.8; stroke-dashoffset: 0; stroke: #b0b0b0; stroke-width: 0.5"/>
     </g>
     <g id="line2d_146">
      <g>
       <use xlink:href="#mbca86a14da" x="391.350358" y="307.584" style="stroke: #000000; stroke-width: 0.6"/>
      </g>
     </g>
    </g>
    <g id="xtick_74">
     <g id="line2d_147">
      <path d="M 398.487273 307.584 
L 398.487273 41.472 
" clip-path="url(#pa52d51ace5)" style="fill: none; stroke-dasharray: 1.85,0.8; stroke-dashoffset: 0; stroke: #b0b0b0; stroke-width: 0.5"/>
     </g>
     <g id="line2d_148">
      <g>
       <use xlink:href="#mbca86a14da" x="398.487273" y="307.584" style="stroke: #000000; stroke-width: 0.6"/>
      </g>
     </g>
    </g>
    <g id="xtick_75">
     <g id="line2d_149">
      <path d="M 403.550994 307.584 
L 403.550994 41.472 
" clip-path="url(#pa52d51ace5)" style="fill: none; stroke-dasharray: 1.85,0.8; stroke-dashoffset: 0; stroke: #b0b0b0; stroke-width: 0.5"/>
     </g>
     <g id="line2d_150">
      <g>
       <use xlink:href="#mbca86a14da" x="403.550994" y="307.584" style="stroke: #000000; stroke-width: 0.6"/>
      </g>
     </g>
    </g>
    <g id="xtick_76">
     <g id="line2d_151">
      <path d="M 407.478722 307.584 
L 407.478722 41.472 
" clip-path="url(#pa52d51ace5)" style="fill: none; stroke-dasharray: 1.85,0.8; stroke-dashoffset: 0; stroke: #b0b0b0; stroke-width: 0.5"/>
     </g>
     <g id="line2d_152">
      <g>
       <use xlink:href="#mbca86a14da" x="407.478722" y="307.584" style="stroke: #000000; stroke-width: 0.6"/>
      </g>
     </g>
    </g>
    <g id="xtick_77">
     <g id="line2d_153">
      <path d="M 410.687909 307.584 
L 410.687909 41.472 
" clip-path="url(#pa52d51ace5)" style="fill: none; stroke-dasharray: 1.85,0.8; stroke-dashoffset: 0; stroke: #b0b0b0; stroke-width: 0.5"/>
     </g>
     <g id="line2d_154">
      <g>
       <use xlink:href="#mbca86a14da" x="410.687909" y="307.584" style="stroke: #000000; stroke-width: 0.6"/>
      </g>
     </g>
    </g>
    <g id="xtick_78">
     <g id="line2d_155">
      <path d="M 413.401238 307.584 
L 413.401238 41.472 
" clip-path="url(#pa52d51ace5)" style="fill: none; stroke-dasharray: 1.85,0.8; stroke-dashoffset: 0; stroke: #b0b0b0; stroke-width: 0.5"/>
     </g>
     <g id="line2d_156">
      <g>
       <use xlink:href="#mbca86a14da" x="413.401238" y="307.584" style="stroke: #000000; stroke-width: 0.6"/>
      </g>
     </g>
    </g>
    <g id="text_9">
     <!-- $time\ (s)$ -->
     <g transform="translate(216.71 335.860562) scale(0.1 -0.1)">
      <defs>
       <path id="DejaVuSans-Oblique-74" d="M 2706 3500 
L 2619 3053 
L 1472 3053 
L 1100 1153 
Q 1081 1047 1072 975 
Q 1063 903 1063 863 
Q 1063 663 1183 572 
Q 1303 481 1569 481 
L 2150 481 
L 2053 0 
L 1503 0 
Q 991 0 739 200 
Q 488 400 488 806 
Q 488 878 497 964 
Q 506 1050 525 1153 
L 897 3053 
L 409 3053 
L 500 3500 
L 978 3500 
L 1172 4494 
L 1747 4494 
L 1556 3500 
L 2706 3500 
z
" transform="scale(0.015625)"/>
       <path id="DejaVuSans-Oblique-69" d="M 1172 4863 
L 1747 4863 
L 1606 4134 
L 1031 4134 
L 1172 4863 
z
M 909 3500 
L 1484 3500 
L 800 0 
L 225 0 
L 909 3500 
z
" transform="scale(0.015625)"/>
       <path id="DejaVuSans-Oblique-6d" d="M 5747 2113 
L 5338 0 
L 4763 0 
L 5166 2094 
Q 5191 2228 5203 2325 
Q 5216 2422 5216 2491 
Q 5216 2772 5059 2928 
Q 4903 3084 4622 3084 
Q 4203 3084 3875 2770 
Q 3547 2456 3450 1953 
L 3066 0 
L 2491 0 
L 2900 2094 
Q 2925 2209 2937 2307 
Q 2950 2406 2950 2484 
Q 2950 2769 2794 2926 
Q 2638 3084 2363 3084 
Q 1938 3084 1609 2770 
Q 1281 2456 1184 1953 
L 800 0 
L 225 0 
L 909 3500 
L 1484 3500 
L 1375 2956 
Q 1609 3263 1923 3423 
Q 2238 3584 2597 3584 
Q 2978 3584 3223 3384 
Q 3469 3184 3519 2828 
Q 3781 3197 4126 3390 
Q 4472 3584 4856 3584 
Q 5306 3584 5551 3325 
Q 5797 3066 5797 2591 
Q 5797 2488 5784 2364 
Q 5772 2241 5747 2113 
z
" transform="scale(0.015625)"/>
       <path id="DejaVuSans-Oblique-65" d="M 3078 2063 
Q 3088 2113 3092 2166 
Q 3097 2219 3097 2272 
Q 3097 2653 2873 2875 
Q 2650 3097 2266 3097 
Q 1838 3097 1509 2826 
Q 1181 2556 1013 2059 
L 3078 2063 
z
M 3578 1613 
L 903 1613 
Q 884 1494 878 1425 
Q 872 1356 872 1306 
Q 872 872 1139 634 
Q 1406 397 1894 397 
Q 2269 397 2603 481 
Q 2938 566 3225 728 
L 3116 159 
Q 2806 34 2476 -28 
Q 2147 -91 1806 -91 
Q 1078 -91 686 257 
Q 294 606 294 1247 
Q 294 1794 489 2264 
Q 684 2734 1063 3103 
Q 1306 3334 1642 3459 
Q 1978 3584 2356 3584 
Q 2950 3584 3301 3228 
Q 3653 2872 3653 2272 
Q 3653 2128 3634 1964 
Q 3616 1800 3578 1613 
z
" transform="scale(0.015625)"/>
       <path id="DejaVuSans-28" d="M 1984 4856 
Q 1566 4138 1362 3434 
Q 1159 2731 1159 2009 
Q 1159 1288 1364 580 
Q 1569 -128 1984 -844 
L 1484 -844 
Q 1016 -109 783 600 
Q 550 1309 550 2009 
Q 550 2706 781 3412 
Q 1013 4119 1484 4856 
L 1984 4856 
z
" transform="scale(0.015625)"/>
       <path id="DejaVuSans-Oblique-73" d="M 3200 3397 
L 3091 2853 
Q 2863 2978 2609 3040 
Q 2356 3103 2088 3103 
Q 1634 3103 1373 2948 
Q 1113 2794 1113 2528 
Q 1113 2219 1719 2053 
Q 1766 2041 1788 2034 
L 1972 1978 
Q 2547 1819 2739 1644 
Q 2931 1469 2931 1166 
Q 2931 609 2489 259 
Q 2047 -91 1331 -91 
Q 1053 -91 747 -37 
Q 441 16 72 128 
L 184 722 
Q 500 559 806 475 
Q 1113 391 1394 391 
Q 1816 391 2080 572 
Q 2344 753 2344 1031 
Q 2344 1331 1650 1516 
L 1591 1531 
L 1394 1581 
Q 956 1697 753 1886 
Q 550 2075 550 2369 
Q 550 2928 970 3256 
Q 1391 3584 2113 3584 
Q 2397 3584 2667 3537 
Q 2938 3491 3200 3397 
z
" transform="scale(0.015625)"/>
       <path id="DejaVuSans-29" d="M 513 4856 
L 1013 4856 
Q 1481 4119 1714 3412 
Q 1947 2706 1947 2009 
Q 1947 1309 1714 600 
Q 1481 -109 1013 -844 
L 513 -844 
Q 928 -128 1133 580 
Q 1338 1288 1338 2009 
Q 1338 2731 1133 3434 
Q 928 4138 513 4856 
z
" transform="scale(0.015625)"/>
      </defs>
      <use xlink:href="#DejaVuSans-Oblique-74" transform="translate(0 0.015625)"/>
      <use xlink:href="#DejaVuSans-Oblique-69" transform="translate(39.208984 0.015625)"/>
      <use xlink:href="#DejaVuSans-Oblique-6d" transform="translate(66.992188 0.015625)"/>
      <use xlink:href="#DejaVuSans-Oblique-65" transform="translate(164.404297 0.015625)"/>
      <use xlink:href="#DejaVuSans-28" transform="translate(258.398113 0.015625)"/>
      <use xlink:href="#DejaVuSans-Oblique-73" transform="translate(297.411785 0.015625)"/>
      <use xlink:href="#DejaVuSans-29" transform="translate(349.511394 0.015625)"/>
     </g>
    </g>
   </g>
   <g id="matplotlib.axis_2">
    <g id="ytick_1">
     <g id="line2d_157">
      <path d="M 57.6 295.488 
L 414.72 295.488 
" clip-path="url(#pa52d51ace5)" style="fill: none; stroke-dasharray: 1.85,0.8; stroke-dashoffset: 0; stroke: #b0b0b0; stroke-width: 0.5"/>
     </g>
     <g id="line2d_158">
      <defs>
       <path id="m3d6ae825cd" d="M 0 0 
L -3.5 0 
" style="stroke: #000000; stroke-width: 0.8"/>
      </defs>
      <g>
       <use xlink:href="#m3d6ae825cd" x="57.6" y="295.488" style="stroke: #000000; stroke-width: 0.8"/>
      </g>
     </g>
     <g id="text_10">
      <!-- 0.0 -->
      <g transform="translate(34.696875 299.287219) scale(0.1 -0.1)">
       <defs>
        <path id="DejaVuSans-2e" d="M 684 794 
L 1344 794 
L 1344 0 
L 684 0 
L 684 794 
z
" transform="scale(0.015625)"/>
       </defs>
       <use xlink:href="#DejaVuSans-30"/>
       <use xlink:href="#DejaVuSans-2e" x="63.623047"/>
       <use xlink:href="#DejaVuSans-30" x="95.410156"/>
      </g>
     </g>
    </g>
    <g id="ytick_2">
     <g id="line2d_159">
      <path d="M 57.6 247.75649 
L 414.72 247.75649 
" clip-path="url(#pa52d51ace5)" style="fill: none; stroke-dasharray: 1.85,0.8; stroke-dashoffset: 0; stroke: #b0b0b0; stroke-width: 0.5"/>
     </g>
     <g id="line2d_160">
      <g>
       <use xlink:href="#m3d6ae825cd" x="57.6" y="247.75649" style="stroke: #000000; stroke-width: 0.8"/>
      </g>
     </g>
     <g id="text_11">
      <!-- 0.2 -->
      <g transform="translate(34.696875 251.555708) scale(0.1 -0.1)">
       <defs>
        <path id="DejaVuSans-32" d="M 1228 531 
L 3431 531 
L 3431 0 
L 469 0 
L 469 531 
Q 828 903 1448 1529 
Q 2069 2156 2228 2338 
Q 2531 2678 2651 2914 
Q 2772 3150 2772 3378 
Q 2772 3750 2511 3984 
Q 2250 4219 1831 4219 
Q 1534 4219 1204 4116 
Q 875 4013 500 3803 
L 500 4441 
Q 881 4594 1212 4672 
Q 1544 4750 1819 4750 
Q 2544 4750 2975 4387 
Q 3406 4025 3406 3419 
Q 3406 3131 3298 2873 
Q 3191 2616 2906 2266 
Q 2828 2175 2409 1742 
Q 1991 1309 1228 531 
z
" transform="scale(0.015625)"/>
       </defs>
       <use xlink:href="#DejaVuSans-30"/>
       <use xlink:href="#DejaVuSans-2e" x="63.623047"/>
       <use xlink:href="#DejaVuSans-32" x="95.410156"/>
      </g>
     </g>
    </g>
    <g id="ytick_3">
     <g id="line2d_161">
      <path d="M 57.6 200.024979 
L 414.72 200.024979 
" clip-path="url(#pa52d51ace5)" style="fill: none; stroke-dasharray: 1.85,0.8; stroke-dashoffset: 0; stroke: #b0b0b0; stroke-width: 0.5"/>
     </g>
     <g id="line2d_162">
      <g>
       <use xlink:href="#m3d6ae825cd" x="57.6" y="200.024979" style="stroke: #000000; stroke-width: 0.8"/>
      </g>
     </g>
     <g id="text_12">
      <!-- 0.4 -->
      <g transform="translate(34.696875 203.824198) scale(0.1 -0.1)">
       <use xlink:href="#DejaVuSans-30"/>
       <use xlink:href="#DejaVuSans-2e" x="63.623047"/>
       <use xlink:href="#DejaVuSans-34" x="95.410156"/>
      </g>
     </g>
    </g>
    <g id="ytick_4">
     <g id="line2d_163">
      <path d="M 57.6 152.293469 
L 414.72 152.293469 
" clip-path="url(#pa52d51ace5)" style="fill: none; stroke-dasharray: 1.85,0.8; stroke-dashoffset: 0; stroke: #b0b0b0; stroke-width: 0.5"/>
     </g>
     <g id="line2d_164">
      <g>
       <use xlink:href="#m3d6ae825cd" x="57.6" y="152.293469" style="stroke: #000000; stroke-width: 0.8"/>
      </g>
     </g>
     <g id="text_13">
      <!-- 0.6 -->
      <g transform="translate(34.696875 156.092688) scale(0.1 -0.1)">
       <use xlink:href="#DejaVuSans-30"/>
       <use xlink:href="#DejaVuSans-2e" x="63.623047"/>
       <use xlink:href="#DejaVuSans-36" x="95.410156"/>
      </g>
     </g>
    </g>
    <g id="ytick_5">
     <g id="line2d_165">
      <path d="M 57.6 104.561959 
L 414.72 104.561959 
" clip-path="url(#pa52d51ace5)" style="fill: none; stroke-dasharray: 1.85,0.8; stroke-dashoffset: 0; stroke: #b0b0b0; stroke-width: 0.5"/>
     </g>
     <g id="line2d_166">
      <g>
       <use xlink:href="#m3d6ae825cd" x="57.6" y="104.561959" style="stroke: #000000; stroke-width: 0.8"/>
      </g>
     </g>
     <g id="text_14">
      <!-- 0.8 -->
      <g transform="translate(34.696875 108.361178) scale(0.1 -0.1)">
       <use xlink:href="#DejaVuSans-30"/>
       <use xlink:href="#DejaVuSans-2e" x="63.623047"/>
       <use xlink:href="#DejaVuSans-38" x="95.410156"/>
      </g>
     </g>
    </g>
    <g id="ytick_6">
     <g id="line2d_167">
      <path d="M 57.6 56.830449 
L 414.72 56.830449 
" clip-path="url(#pa52d51ace5)" style="fill: none; stroke-dasharray: 1.85,0.8; stroke-dashoffset: 0; stroke: #b0b0b0; stroke-width: 0.5"/>
     </g>
     <g id="line2d_168">
      <g>
       <use xlink:href="#m3d6ae825cd" x="57.6" y="56.830449" style="stroke: #000000; stroke-width: 0.8"/>
      </g>
     </g>
     <g id="text_15">
      <!-- 1.0 -->
      <g transform="translate(34.696875 60.629667) scale(0.1 -0.1)">
       <use xlink:href="#DejaVuSans-31"/>
       <use xlink:href="#DejaVuSans-2e" x="63.623047"/>
       <use xlink:href="#DejaVuSans-30" x="95.410156"/>
      </g>
     </g>
    </g>
    <g id="text_16">
     <!-- $V(out) $ -->
     <g transform="translate(28.617187 190.078) rotate(-90) scale(0.1 -0.1)">
      <defs>
       <path id="DejaVuSans-Oblique-56" d="M 1319 0 
L 500 4666 
L 1119 4666 
L 1797 653 
L 4063 4666 
L 4750 4666 
L 2053 0 
L 1319 0 
z
" transform="scale(0.015625)"/>
       <path id="DejaVuSans-Oblique-6f" d="M 1625 -91 
Q 1009 -91 651 289 
Q 294 669 294 1325 
Q 294 1706 417 2101 
Q 541 2497 738 2766 
Q 1047 3184 1428 3384 
Q 1809 3584 2291 3584 
Q 2888 3584 3255 3212 
Q 3622 2841 3622 2241 
Q 3622 1825 3500 1412 
Q 3378 1000 3181 728 
Q 2875 309 2494 109 
Q 2113 -91 1625 -91 
z
M 891 1344 
Q 891 869 1089 633 
Q 1288 397 1691 397 
Q 2269 397 2648 901 
Q 3028 1406 3028 2181 
Q 3028 2634 2825 2865 
Q 2622 3097 2228 3097 
Q 1903 3097 1650 2945 
Q 1397 2794 1197 2484 
Q 1050 2253 970 1956 
Q 891 1659 891 1344 
z
" transform="scale(0.015625)"/>
       <path id="DejaVuSans-Oblique-75" d="M 428 1388 
L 838 3500 
L 1416 3500 
L 1006 1409 
Q 975 1256 961 1147 
Q 947 1038 947 966 
Q 947 700 1109 554 
Q 1272 409 1569 409 
Q 2031 409 2368 721 
Q 2706 1034 2809 1563 
L 3194 3500 
L 3769 3500 
L 3091 0 
L 2516 0 
L 2631 550 
Q 2388 244 2052 76 
Q 1716 -91 1338 -91 
Q 878 -91 622 161 
Q 366 413 366 863 
Q 366 956 381 1097 
Q 397 1238 428 1388 
z
" transform="scale(0.015625)"/>
      </defs>
      <use xlink:href="#DejaVuSans-Oblique-56" transform="translate(0 0.125)"/>
      <use xlink:href="#DejaVuSans-28" transform="translate(68.408203 0.125)"/>
      <use xlink:href="#DejaVuSans-Oblique-6f" transform="translate(107.421875 0.125)"/>
      <use xlink:href="#DejaVuSans-Oblique-75" transform="translate(168.603516 0.125)"/>
      <use xlink:href="#DejaVuSans-Oblique-74" transform="translate(231.982422 0.125)"/>
      <use xlink:href="#DejaVuSans-29" transform="translate(271.191406 0.125)"/>
     </g>
    </g>
   </g>
   <g id="line2d_169">
    <path d="M -1 295.488 
L 348.164181 295.377027 
L 348.328924 295.19857 
L 348.424911 295.058788 
L 348.562681 294.970343 
L 348.66676 294.791886 
L 348.796607 294.656119 
L 348.908118 294.423357 
L 349.052346 294.240252 
L 349.188411 293.921949 
L 349.57114 293.189692 
L 349.821179 292.557963 
L 349.976853 292.110313 
L 350.273535 291.201231 
L 350.426506 290.771315 
L 350.857118 289.338365 
L 351.336689 287.564438 
L 351.486935 287.010485 
L 352.098354 284.529361 
L 352.730388 281.722703 
L 352.929011 280.811558 
L 355.069698 270.367837 
L 356.501141 262.947401 
L 356.650793 262.184795 
L 356.998585 260.242528 
L 357.836671 255.735528 
L 358.005225 254.714193 
L 358.684276 250.902832 
L 359.596914 245.767494 
L 359.86776 244.051618 
L 360.060049 242.957277 
L 360.488164 240.42882 
L 360.649027 239.354097 
L 361.096254 236.606958 
L 361.24092 235.65543 
L 361.681942 232.877504 
L 361.824447 231.930487 
L 362.245983 229.246138 
L 362.393309 228.20595 
L 362.792951 225.622577 
L 362.9441 224.516662 
L 363.224643 222.560028 
L 363.37239 221.564874 
L 363.639866 219.658787 
L 363.7796 218.66633 
L 364.047984 216.723992 
L 364.187388 215.742202 
L 364.443941 213.885661 
L 364.585573 212.822847 
L 364.831531 211.019145 
L 364.975672 209.892538 
L 365.211266 208.145637 
L 365.357517 206.967337 
L 365.582597 205.285851 
L 365.733968 204.031658 
L 365.895917 202.683076 
L 366.129856 200.845317 
L 366.271306 199.696969 
L 366.479404 198.090016 
L 366.648685 196.668261 
L 366.745746 195.714705 
L 366.883647 194.629624 
L 367.0045 193.485619 
L 367.152054 192.397078 
L 367.255038 191.414692 
L 367.393923 190.265341 
L 367.506588 189.161598 
L 367.643756 188.08351 
L 367.752251 187.02504 
L 367.889112 185.919865 
L 367.994219 184.885929 
L 368.132062 183.735313 
L 368.2336 182.725219 
L 368.371784 181.560976 
L 368.469456 180.588422 
L 368.608332 179.382557 
L 368.701213 178.462604 
L 368.841328 177.216955 
L 368.930747 176.313039 
L 369.071721 175.037987 
L 369.154257 174.285023 
L 369.371832 172.149109 
L 369.45562 171.294715 
L 369.598156 169.96556 
L 369.621531 169.495476 
L 369.820743 167.729529 
L 369.975398 165.940552 
L 370.253542 163.216515 
L 370.398062 161.623404 
L 370.583366 159.916382 
L 370.67015 159.019698 
L 370.819923 157.234874 
L 371.011853 155.402891 
L 371.16112 153.613245 
L 371.286416 152.245165 
L 371.459831 150.558906 
L 371.544411 149.690933 
L 371.697401 147.790789 
L 371.809684 146.573778 
L 371.952566 144.921767 
L 372.067353 143.646286 
L 372.209152 142.025467 
L 372.31943 140.809865 
L 372.462336 139.119477 
L 372.56804 137.965496 
L 372.711624 136.22332 
L 372.813752 135.128168 
L 372.958709 133.313177 
L 373.055556 132.278573 
L 373.201697 130.411412 
L 373.294234 129.42862 
L 373.441379 127.519789 
L 373.529044 126.617807 
L 373.682269 124.596902 
L 373.728527 123.938446 
L 373.821234 122.956203 
L 373.968282 120.99618 
L 374.048981 120.151476 
L 374.203567 118.083222 
L 374.226261 117.577101 
L 374.36942 115.930746 
L 374.394446 115.418491 
L 374.533196 113.785501 
L 374.561783 113.238044 
L 374.703942 111.595436 
L 374.725633 111.1417 
L 374.865275 109.443079 
L 374.889548 108.968771 
L 375.028442 107.275782 
L 375.051532 106.824767 
L 375.191015 105.093354 
L 375.211765 104.667279 
L 375.35114 102.933073 
L 375.370777 102.534659 
L 375.510333 100.773676 
L 375.528139 100.40075 
L 375.668162 98.605759 
L 375.684179 98.266578 
L 375.824968 96.434166 
L 375.839003 96.112336 
L 375.979709 94.267704 
L 375.992009 93.985348 
L 376.133142 92.106398 
L 376.144081 91.851798 
L 376.285929 89.931607 
L 376.296256 89.608966 
L 376.435953 87.771756 
L 376.444202 87.566248 
L 376.586512 85.609184 
L 376.592097 85.443675 
L 376.735222 83.42931 
L 376.735795 83.429716 
L 376.794364 82.139652 
L 376.952653 79.889398 
L 376.986743 79.365569 
L 377.124307 77.603393 
L 377.286315 74.832221 
L 377.321436 74.281423 
L 377.466462 71.971075 
L 377.601369 70.067184 
L 377.748165 67.639297 
L 377.789666 66.972034 
L 377.948331 64.696983 
L 377.967693 64.441572 
L 378.117104 61.849011 
L 378.152678 61.318571 
L 378.297159 58.954143 
L 378.332224 58.433201 
L 378.474582 56.21519 
L 378.507104 55.949086 
L 378.600623 54.983955 
L 378.630502 55.117842 
L 378.637028 55.025959 
L 378.73171 54.214285 
L 378.758214 54.418337 
L 378.76557 54.496139 
L 378.816702 53.959637 
L 378.905528 53.706183 
L 378.85252 54.247458 
L 378.927895 53.942692 
L 378.93902 54.092569 
L 378.991515 53.600219 
L 379.029404 53.83649 
L 379.077496 53.568 
L 379.110716 54.025268 
L 379.140286 53.828137 
L 379.238567 54.093285 
L 379.162969 53.590434 
L 379.24575 53.738401 
L 379.248173 53.649621 
L 379.323106 54.19376 
L 379.35163 54.020972 
L 379.449264 54.385402 
L 379.374706 53.811669 
L 379.458164 53.944124 
L 379.458949 53.938397 
L 379.532905 54.522153 
L 379.555877 54.268937 
L 379.657654 54.745536 
L 379.583959 54.155336 
L 379.674127 54.382061 
L 379.8225 55.035744 
L 379.708228 54.369651 
L 379.824089 54.984194 
L 379.832003 54.58492 
L 379.904357 55.174643 
L 379.93387 55.033596 
L 380.067028 55.44361 
L 379.954419 54.792075 
L 380.067771 55.42762 
L 380.076347 54.992786 
L 380.147586 55.572962 
L 380.178085 55.450531 
L 380.308155 55.816154 
L 380.197173 55.177507 
L 380.309043 55.79372 
L 380.31746 55.36175 
L 380.387656 55.926175 
L 380.419346 55.824746 
L 380.545853 56.118056 
L 380.436452 55.521651 
L 380.545946 56.11734 
L 380.555158 55.655299 
L 380.624361 56.186789 
L 380.657726 56.12259 
L 380.780648 56.347167 
L 380.672604 55.779878 
L 380.78083 56.345735 
L 380.789764 55.889183 
L 380.858113 56.406116 
L 380.892023 56.345497 
L 380.973792 56.495374 
L 380.905593 55.979396 
L 381.00902 56.459098 
L 381.126844 56.593939 
L 381.02083 56.063403 
L 381.127066 56.591553 
L 381.135674 56.137865 
L 381.202856 56.640477 
L 381.237359 56.600144 
L 381.354032 56.721382 
L 381.249442 56.208746 
L 381.354426 56.715177 
L 381.362726 56.265785 
L 381.428996 56.752169 
L 381.464532 56.743816 
L 381.578123 56.818993 
L 381.475007 56.320915 
L 381.578803 56.804674 
L 381.586698 56.361725 
L 381.688401 56.8604 
L 381.799606 56.909349 
L 381.697783 56.413037 
L 381.800602 56.88219 
L 381.808174 56.449551 
L 381.90927 56.943644 
L 381.919758 56.500863 
L 382.054449 56.974502 
L 381.954002 56.4906 
L 382.056819 56.867297 
L 382.062986 56.505636 
L 382.126567 56.98455 
L 382.173051 56.546685 
L 382.30562 57.019967 
L 382.206564 56.530695 
L 382.30802 56.910017 
L 382.314117 56.545253 
L 382.376757 57.022377 
L 382.423952 56.602053 
L 382.553192 57.035766 
L 382.455609 56.564107 
L 382.555649 56.920112 
L 382.561486 56.573415 
L 382.658348 57.056672 
L 382.67076 56.640239 
L 382.797443 57.063307 
L 382.701185 56.590598 
L 382.800076 56.932093 
L 382.840337 56.598951 
L 382.832106 57.068653 
L 382.914885 56.684629 
L 383.038405 57.081684 
L 382.943469 56.605395 
L 383.041185 56.938513 
L 383.11469 56.612793 
L 383.106624 57.08345 
L 383.155296 56.718518 
L 383.276025 57.088533 
L 383.182283 56.623055 
L 383.27901 56.928442 
L 383.317639 56.624249 
L 383.376833 57.096576 
L 383.392559 56.744293 
L 383.477181 57.100012 
L 383.41791 56.629738 
L 383.513757 56.91343 
L 383.584779 56.634272 
L 383.576884 57.104332 
L 383.626737 56.777467 
L 383.709 57.105979 
L 383.650701 56.633318 
L 383.744916 56.923406 
L 383.815197 56.63284 
L 383.807366 57.110346 
L 383.857743 56.799901 
L 383.937799 57.116265 
L 383.880109 56.641432 
L 383.973678 56.913215 
L 384.010284 56.645012 
L 384.002558 57.118747 
L 384.085719 56.838229 
L 384.195708 57.120131 
L 384.138975 56.651694 
L 384.199401 56.89639 
L 384.298898 56.653126 
L 384.227691 57.122422 
L 384.310767 56.854577 
L 384.386696 57.117244 
L 384.330542 56.652172 
L 384.422299 56.862429 
L 384.457341 56.64716 
L 384.449823 57.120131 
L 384.532961 56.874338 
L 384.606862 57.122208 
L 384.551397 56.655274 
L 384.642312 56.850663 
L 384.645466 56.654797 
L 384.731505 57.130608 
L 384.752472 56.90837 
L 384.824381 57.127434 
L 384.769714 56.65599 
L 384.859563 56.82663 
L 384.954764 56.653842 
L 384.947481 57.124379 
L 384.969462 56.922213 
L 385.039143 57.125143 
L 384.985061 56.657183 
L 385.074249 56.808731 
L 385.137644 56.654797 
L 385.13044 57.129964 
L 385.183489 56.950422 
L 385.221328 57.130203 
L 385.258265 56.658377 
L 385.286563 56.780331 
L 385.34877 56.656467 
L 385.311595 57.125071 
L 385.395262 56.97751 
L 385.490971 57.123926 
L 385.408525 56.649546 
L 385.496228 56.750737 
L 385.527686 56.652888 
L 385.579916 57.12457 
L 385.604035 57.000779 
L 385.609419 57.128627 
L 385.616299 56.654081 
L 385.703283 56.729019 
L 385.704836 56.654081 
L 385.756524 57.124165 
L 385.810837 57.023403 
L 385.815018 57.124165 
L 385.879915 56.647876 
L 385.907977 56.690595 
L 385.938076 56.641909 
L 385.989262 57.119368 
L 386.014811 57.04357 
L 386.046989 57.127076 
L 386.08245 56.652172 
L 386.110493 56.665775 
L 386.111158 56.656229 
L 386.161833 57.131658 
L 386.212911 56.987175 
L 386.275966 57.13562 
L 386.282494 56.666968 
L 386.310524 56.667923 
L 386.39604 56.653126 
L 386.33267 57.129558 
L 386.410235 56.934838 
L 386.473857 57.131324 
L 386.423839 56.658138 
L 386.512038 56.716848 
L 386.613832 57.122017 
L 386.536485 56.655751 
L 386.620151 56.657899 
L 386.70403 56.653603 
L 386.697389 57.129248 
L 386.721918 57.031756 
L 386.835655 57.122566 
L 386.731421 56.646921 
L 386.836158 57.108151 
L 386.897124 56.651933 
L 386.890606 57.122518 
L 386.955023 56.70754 
L 387.054595 57.122852 
L 386.979178 56.655274 
L 387.083124 57.052329 
L 387.169561 56.651694 
L 387.108994 57.125119 
L 387.198654 56.691311 
L 387.297823 57.130203 
L 387.223313 56.655274 
L 387.326162 57.028725 
L 387.384345 56.651456 
L 387.351384 57.126742 
L 387.440951 56.706347 
L 387.564094 57.124761 
L 387.464043 56.655513 
L 387.565862 57.014788 
L 387.596574 56.650262 
L 387.669492 57.13247 
L 387.679963 56.742623 
L 387.800339 57.125716 
L 387.701856 56.659093 
L 387.8025 56.979801 
L 387.910554 56.648353 
L 387.87841 57.125167 
L 387.916108 56.755033 
L 388.033492 57.124666 
L 387.936028 56.647637 
L 388.03602 56.94183 
L 388.039611 56.653365 
L 388.110465 57.127339 
L 388.148668 56.794173 
L 388.263581 57.124618 
L 388.193105 56.653365 
L 388.266088 56.940518 
L 388.269584 56.655035 
L 388.314296 57.123735 
L 388.378517 56.815891 
L 388.465601 57.125239 
L 388.395811 56.658854 
L 388.493397 56.908012 
L 388.596626 56.655513 
L 388.59066 57.131229 
L 388.605204 56.838635 
L 388.665289 57.131133 
L 388.621217 56.65957 
L 388.717973 56.883526 
L 388.74539 56.659809 
L 388.789036 57.128079 
L 388.829083 56.875507 
L 388.887362 57.134069 
L 388.843832 56.661718 
L 388.939604 56.858467 
L 388.966433 56.65074 
L 389.009494 57.125978 
L 389.05026 56.903955 
L 389.106645 57.126647 
L 389.063741 56.658615 
L 389.158382 56.839017 
L 389.23294 56.654081 
L 389.20318 57.125143 
L 389.268511 56.928179 
L 389.370956 57.126456 
L 389.328725 56.655035 
L 389.374686 56.80348 
L 389.376636 56.655274 
L 389.442352 57.130346 
L 389.484089 56.960803 
L 389.513422 57.126933 
L 389.566185 56.655751 
L 389.588257 56.767682 
L 389.660437 56.654797 
L 389.607847 57.126527 
L 389.697198 56.990898 
L 389.771792 57.130465 
L 389.777236 56.65599 
L 389.799268 56.736895 
L 389.847069 56.657183 
L 389.818317 57.124427 
L 389.90762 57.023666 
L 389.934188 57.130919 
L 389.985693 56.655513 
L 390.007862 56.698232 
L 390.077709 56.657661 
L 390.026377 57.125119 
L 390.116923 57.08901 
L 390.140931 57.126241 
L 390.146196 56.65599 
L 390.214421 56.659093 
L 390.219591 56.770068 
L 390.277368 57.13247 
L 390.305161 56.660286 
L 390.327298 56.674605 
L 390.418054 56.655274 
L 390.345137 57.126336 
L 390.431683 57.007413 
L 390.480012 57.131062 
L 390.485265 56.656229 
L 390.534218 56.744771 
L 390.658319 57.130608 
L 390.574553 56.654319 
L 390.659042 57.092065 
L 390.773981 56.657183 
L 390.746715 57.132518 
L 390.775029 56.672935 
L 390.900429 57.123783 
L 390.817889 56.655513 
L 390.901745 57.029155 
L 390.949288 56.656706 
L 390.944137 57.125787 
L 391.016154 56.689402 
L 391.096171 57.126766 
L 391.057897 56.657183 
L 391.140639 57.030563 
L 391.165944 56.648114 
L 391.203944 57.121993 
L 391.254725 56.715654 
L 391.311099 57.132016 
L 391.337442 56.65074 
L 391.376622 56.992306 
L 391.486138 56.651933 
L 391.417591 57.124928 
L 391.490004 56.740475 
L 391.586613 57.125358 
L 391.50707 56.655513 
L 391.60938 56.969109 
L 391.65456 56.654797 
L 391.628627 57.125716 
L 391.722101 56.779615 
L 391.774877 57.133329 
L 391.800497 56.661479 
L 391.839214 56.943763 
L 391.904155 56.654081 
L 391.878594 57.127172 
L 391.951327 56.806344 
L 392.063769 57.123449 
L 391.96588 56.656945 
L 392.065964 56.919253 
L 392.068604 56.654319 
L 392.104637 57.121897 
L 392.177638 56.84515 
L 392.246968 57.129797 
L 392.190886 56.654797 
L 392.289812 56.886939 
L 392.31244 56.654319 
L 392.368066 57.130083 
L 392.40096 56.877035 
L 392.408331 57.125095 
L 392.433019 56.649785 
L 392.511048 56.847513 
L 392.572835 56.652888 
L 392.5482 57.125525 
L 392.621568 56.912165 
L 392.706817 57.124952 
L 392.632316 56.653365 
L 392.729472 56.816845 
L 392.731174 56.654797 
L 392.824806 57.136718 
L 392.839413 56.959133 
L 392.844359 57.133735 
L 392.927035 56.657183 
L 392.945179 56.781763 
L 393.004999 56.659809 
L 393.000339 57.134546 
L 393.054607 56.991686 
L 393.058416 57.1292 
L 393.082171 56.650024 
L 393.158359 56.734986 
L 393.236229 56.653842 
L 393.231683 57.124881 
L 393.267221 57.024 
L 393.365236 57.128604 
L 393.312572 56.652888 
L 393.369113 56.68797 
L 393.388752 56.654558 
L 393.384201 57.127458 
L 393.477312 57.06629 
L 393.497769 57.130942 
L 393.577402 56.650262 
L 393.577418 56.650262 
L 393.577567 56.649546 
L 393.610633 57.123353 
L 393.683799 57.060992 
L 393.759958 57.125429 
L 393.689825 56.65074 
L 393.788504 56.815652 
L 393.889589 57.12605 
L 393.801324 56.657183 
L 393.894044 56.65599 
L 394.018279 57.124069 
L 394.020835 56.841093 
L 394.040856 56.656229 
L 394.03654 57.128007 
L 394.133115 56.681288 
L 394.164192 57.128079 
L 394.186453 56.658854 
L 394.255958 57.012449 
L 394.295156 56.656706 
L 394.362875 57.131515 
L 394.369286 56.713984 
L 394.452444 57.122685 
L 394.384969 56.649785 
L 394.489479 56.988368 
L 394.545792 56.653603 
L 394.594828 57.129415 
L 394.602382 56.748112 
L 394.700858 57.126718 
L 394.704951 56.654558 
L 394.71997 56.960398 
L 394.79282 56.646921 
L 394.736046 57.124499 
L 394.832349 56.790116 
L 394.841265 57.125764 
L 394.86273 56.654081 
L 394.947527 56.936914 
L 394.949935 56.651217 
L 394.980496 57.123735 
L 395.059373 56.829494 
L 395.118721 57.129582 
L 395.07101 56.656467 
L 395.172237 56.894504 
L 395.276903 56.65241 
L 395.204499 57.13247 
L 395.283523 56.86157 
L 395.357958 57.125429 
L 395.378867 56.65074 
L 395.394152 56.84262 
L 395.429708 56.653603 
L 395.493232 57.124881 
L 395.50471 56.903454 
L 395.593985 57.135 
L 395.53078 56.655274 
L 395.613231 56.815891 
L 395.648014 56.656229 
L 395.627464 57.12932 
L 395.723407 56.951281 
L 395.810393 57.133162 
L 395.764544 56.655274 
L 395.829761 56.771023 
L 395.830846 56.660286 
L 395.876386 57.130895 
L 395.939202 57.003117 
L 396.007782 57.134952 
L 395.962367 56.662911 
L 396.043373 56.755272 
L 396.142028 56.659809 
L 396.138187 57.128174 
L 396.152517 57.040658 
L 396.219167 57.124713 
L 396.222918 56.655513 
L 396.254897 56.666014 
L 396.2875 56.65241 
L 396.34801 57.125143 
L 396.361608 57.013762 
L 396.459962 57.129367 
L 396.367777 56.650262 
L 396.467115 56.771739 
L 396.475886 57.1313 
L 396.543166 56.657661 
L 396.575027 56.660525 
L 396.681751 57.122876 
L 396.590713 56.657661 
L 396.699706 56.832931 
L 396.795226 56.646921 
L 396.744587 57.129009 
L 396.811828 56.674605 
L 396.838499 57.129606 
L 396.873288 56.652888 
L 396.93292 57.005051 
L 397.012915 56.648114 
L 396.993857 57.125024 
L 397.045906 56.722098 
L 397.101769 57.129105 
L 397.059182 56.652649 
L 397.16439 56.973858 
L 397.243182 56.653126 
L 397.193769 57.129534 
L 397.276806 56.76267 
L 397.36117 57.134212 
L 397.288788 56.653603 
L 397.392978 56.944241 
L 397.470493 56.656229 
L 397.40655 57.13395 
L 397.50488 56.805628 
L 397.616838 57.124833 
L 397.575436 56.654797 
L 397.618314 56.940398 
L 397.620387 56.654797 
L 397.721046 57.133424 
L 397.729834 56.8604 
L 397.83934 57.130919 
L 397.783728 56.655035 
L 397.841228 56.876677 
L 397.930992 56.65074 
L 397.854076 57.130919 
L 397.952165 56.899922 
L 398.059135 57.123616 
L 397.974955 56.651933 
L 398.061292 56.820664 
L 398.164172 56.660047 
L 398.117262 57.136694 
L 398.171614 56.950565 
L 398.189663 57.129296 
L 398.250719 56.652888 
L 398.278631 56.764579 
L 398.293978 56.651456 
L 398.376509 57.131515 
L 398.388311 57.004884 
L 398.405107 57.127148 
L 398.465327 56.64883 
L 398.487273 56.96288 
" clip-path="url(#pa52d51ace5)" style="fill: none; stroke: #1f77b4; stroke-width: 1.5; stroke-linecap: square"/>
   </g>
   <g id="patch_3">
    <path d="M 57.6 307.584 
L 57.6 41.472 
" style="fill: none; stroke: #000000; stroke-width: 0.8; stroke-linejoin: miter; stroke-linecap: square"/>
   </g>
   <g id="patch_4">
    <path d="M 414.72 307.584 
L 414.72 41.472 
" style="fill: none; stroke: #000000; stroke-width: 0.8; stroke-linejoin: miter; stroke-linecap: square"/>
   </g>
   <g id="patch_5">
    <path d="M 57.6 307.584 
L 414.72 307.584 
" style="fill: none; stroke: #000000; stroke-width: 0.8; stroke-linejoin: miter; stroke-linecap: square"/>
   </g>
   <g id="patch_6">
    <path d="M 57.6 41.472 
L 414.72 41.472 
" style="fill: none; stroke: #000000; stroke-width: 0.8; stroke-linejoin: miter; stroke-linecap: square"/>
   </g>
  </g>
 </g>
 <defs>
  <clipPath id="pa52d51ace5">
   <rect x="57.6" y="41.472" width="357.12" height="266.112"/>
  </clipPath>
 </defs>
</svg>
